<svg xmlns="http://www.w3.org/2000/svg" version="1.1" xmlns:xlink="http://www.w3.org/1999/xlink" xmlns:svgjs="http://svgjs.com/svgjs" width="100%" height="100%" viewBox="0 0 1000 600"><rect width="1000" height="600" x="0" y="0" fill="#2a1b38"/><g><circle r="166.66666666666666" cx="356.4860178629557" cy="378.7083107779547" fill="#d83f87" transform="matrix(0.6585205474166412,0,0,0.6585205474166412,0,50.612779593514745)"/><path d="M260.457606924365 453.7083317745539L260.457606924365 453.7083317745539Q256.3784329790237 451.30729900925814 255.26827804453208 448.5964555645693Q254.15812311004052 445.9114296764966 254.15812311004052 444.05256560013856L254.15812311004052 444.05256560013856Q254.15812311004052 438.8374191636897 257.95330393260485 429.9303621311408Q261.77430231178516 420.99748754197583 268.177056352574 409.5603099610506Q274.60562794997884 398.1489499367417 282.40253004803617 385.8597929874858L282.40253004803617 385.8597929874858Q275.53505998815785 385.317624298548 270.68135934433406 385.1369014022355Q265.85347625712643 384.93036094930676 262.3164710007229 384.93036094930676L262.3164710007229 384.93036094930676L255.81044673346986 384.93036094930676Q257.87585126275656 379.5603091731614 262.9877274727412 377.41745197402645Q268.09960368272573 375.2745947748915 275.1477966389166 375.2745947748915L275.1477966389166 375.2745947748915Q278.3233561026949 375.2745947748915 281.6538209061697 375.6360405675166Q285.01010326626056 376.02330391675787 288.5471085226641 376.5654726056956L288.5471085226641 376.5654726056956Q298.0221518007668 362.2625462403853 307.96191109795905 348.7857816867895Q317.9016703951512 335.30901713319383 326.55055186153925 324.80127159044775Q335.1994333279274 314.2935260477017 340.95674845331405 308.92347427155624L340.95674845331405 308.92347427155624Q346.3526177860755 303.7083278351073 349.889623042479 303.7083278351073L349.889623042479 303.7083278351073Q351.9292100151496 303.7083278351073 354.4335130069097 305.2831987886884Q356.93781599866986 306.85806974226955 359.7261121132069 309.6463658568066L359.7261121132069 309.6463658568066Q357.8672480368489 311.1437841405394 355.00149925246353 317.5465381813283Q352.10993291146224 323.9751097787331 348.8569207778356 333.63087595314835Q345.6039086442091 343.31245968417977 342.4541667370469 354.82708993495316Q339.27860727326856 366.34172018572656 336.5935813851959 378.34688401220546Q333.8827379405071 390.3262302820683 332.307866986926 401.1179689475913Q330.7329960333449 411.8838900564982 330.7329960333449 420.0680555037968L330.7329960333449 420.0680555037968Q330.7329960333449 427.14206601660374 332.307866986926 431.04051706563234Q333.8827379405071 434.93896811466095 337.6004660932232 434.93896811466095L337.6004660932232 434.93896811466095Q342.4541667370469 434.93896811466095 348.5729276550587 428.2522209510953Q354.7175061296866 421.56547378752964 361.9722395388062 407.44327031853186L361.9722395388062 407.44327031853186L363.83110361516424 409.3021343948899Q358.25451138609014 424.17304700575403 349.6056299197021 433.64809028385685Q340.95674845331405 443.12313356195955 331.6624280715239 443.12313356195955L331.6624280715239 443.12313356195955Q324.0462488697792 443.12313356195955 320.61251383984006 436.33311617192953Q317.15296125328484 429.5430987818995 317.15296125328484 418.2091914274388L317.15296125328484 418.2091914274388Q317.15296125328484 412.2711534057395 318.00494062161556 405.19714289293256Q318.8311024333302 398.1489499367417 320.32852071706316 390.50695317838085L320.32852071706316 390.50695317838085Q312.14435526976456 389.21607534757675 305.35433787973454 388.389913535862Q298.5643204897045 387.53793416753126 292.8070053643179 386.7892250256648L292.8070053643179 386.7892250256648Q284.08067122808154 402.9768330239493 275.7932355543187 420.0680555037968Q267.5316174371719 437.18509554026025 260.457606924365 453.7083317745539ZM321.61939854786726 384.00092891112774L321.61939854786726 384.00092891112774Q324.4076946624043 371.737589518488 328.1254228151204 359.19025700307134Q331.84315096783644 346.64292448765457 336.02559513964206 335.30901713319383Q340.2080393114476 323.9751097787331 343.92576746416364 315.4294985388094L343.92576746416364 315.4294985388094Q338.168452338777 318.94068623859675 330.6297258068805 327.97683105422607Q323.1168168316002 336.9871583132393 314.75192848798906 349.8959366212812Q306.3870401443779 362.8305324859391 297.6348884515255 378.2436137857411L297.6348884515255 378.2436137857411Q303.9601898224661 379.5603091731614 310.18222096694217 381.1351801267425Q316.43006966803443 382.71005108032364 321.61939854786726 384.00092891112774ZM405.087559087666 453.7083317745539L405.087559087666 453.7083317745539Q395.0445295640095 453.7083317745539 386.1374725314606 450.0938738483021Q377.20459794229555 446.4794159220504 371.7312759396858 439.0439596166183Q366.23213638046 431.60850331118615 366.23213638046 420.45531885303797L366.23213638046 420.45531885303797Q366.23213638046 410.77373512200666 370.05313475964044 405.3778657892451Q373.8483155822047 400.00781401309973 379.4249078112788 397.76168658750044Q385.0015000403529 395.5413767185172 390.0359235804892 395.5413767185172L390.0359235804892 395.5413767185172Q385.0015000403529 400.93724605127875 382.41974437874455 407.44327031853186Q379.81217116052005 413.94929458578497 379.81217116052005 420.45531885303797L379.81217116052005 420.45531885303797Q379.81217116052005 427.3227889129163 382.884460397834 433.2608269346156Q385.9309320785319 439.22468251293094 392.25623344947246 442.83914043918264Q398.5815348204129 446.4794159220504 408.2373009948283 446.4794159220504L408.2373009948283 446.4794159220504Q416.6021893384394 446.4794159220504 424.60563188942535 443.40712668473645Q432.6090744404113 440.3348374474225 437.7209506503958 434.29352919925896Q442.83282686038046 428.2522209510953 442.83282686038046 419.31934636193034L442.83282686038046 419.31934636193034Q442.83282686038046 411.34172136756047 438.72783535842314 405.5844062421738Q434.64866141308187 399.801273560171 428.22008981567706 395.36065382220465Q421.8173357748883 390.8942165276221 414.5626023657687 386.7892250256648Q407.30786895664926 382.71005108032364 400.9051149158605 378.1661611158928Q394.50236087507164 373.596453594846 390.39736937311443 367.6584155731467Q386.31819542777316 361.6945599948315 386.31819542777316 353.32967165122034L386.31819542777316 353.32967165122034Q386.31819542777316 345.532769553163 390.0359235804892 336.9871583132393Q393.7536517332053 328.4415470733155 400.72439201954785 320.7995503149548Q407.6951323058905 313.1833711132101 417.45416870677013 308.45875825246674Q427.21320510764986 303.7083278351073 439.29582160397695 303.7083278351073L439.29582160397695 303.7083278351073Q450.2682831658126 303.7083278351073 454.5281800074664 309.0009269414045Q458.8138944057363 314.2935260477017 458.8138944057363 322.2969685986876L458.8138944057363 322.2969685986876Q458.8138944057363 328.9837157622534 456.4903143102888 336.7031651904624Q454.1667342148412 344.42261461867145 450.81045185475034 351.393354905014Q447.47998705127554 358.36409519135657 444.4851504838098 363.1919782785643L444.4851504838098 363.1919782785643Q441.154685680335 362.44326913669784 439.7605376230665 360.3004119375629Q438.36638956579793 358.183372295044 438.36638956579793 355.18853572757837L438.36638956579793 355.18853572757837Q438.36638956579793 351.29008467854965 440.0445307458434 346.2814786950295Q441.6968543692727 341.24705515489313 443.83971156840767 335.87700337874765Q445.9825687675426 330.4811340459862 447.6607099475881 325.36925783600157Q449.3388511276336 320.25738162601704 449.3388511276336 316.1523901240597L449.3388511276336 316.1523901240597Q449.3388511276336 312.43466197134364 447.0927237020343 310.31762232882477Q444.87241383305104 308.17476512968983 438.9085582547357 308.17476512968983L438.9085582547357 308.17476512968983Q430.18222411849945 308.17476512968983 422.7467678130673 312.2539390750311Q415.3113115076352 316.3589305769884 409.7347192785611 322.7616846177772Q404.158127049487 329.1644386585659 401.08583781217305 336.23844917137285Q398.0135485748591 343.31245968417977 398.0135485748591 349.0697748095665L398.0135485748591 349.0697748095665Q398.0135485748591 355.9372448694447 402.01526985035207 360.8683981831167Q406.01699112584504 365.7995514967887 412.3422924967855 369.8012727722818Q418.66759386772605 373.77717649115857 425.8190570503813 377.77889776665165Q432.9705202330365 381.7806190421446 439.29582160397695 386.60850212935225Q445.6211229749175 391.43638521655987 449.5970266937944 398.04567971027734Q453.5987479692874 404.6549742039948 453.5987479692874 414.1300174820975L453.5987479692874 414.1300174820975Q453.5987479692874 423.7857836565129 449.3388511276336 431.1437872920967Q445.0531367293637 438.47597337106447 437.9016735467085 443.48457935458475Q430.75021036405326 448.5190028947211 422.1787815675134 451.1265761129455Q413.6331703275897 453.7083317745539 405.087559087666 453.7083317745539Z " fill="#ffffff" transform="matrix(0.6585205474166412,0,0,0.6585205474166412,0,50.612779593514745)"/><path d="M611.5693450370926 424.74999442572084L611.5693450370926 424.74999442572084Q608.2776783704259 422.81249442572084 607.3818450370926 420.62499442572084Q606.4860117037592 418.4583277590541 606.4860117037592 416.9583277590542L606.4860117037592 416.9583277590542Q606.4860117037592 412.74999442572084 609.5485117037592 405.56249442572084Q612.6318450370926 398.35416109238747 617.7985117037592 389.12499442572084Q622.9860117037592 379.91666109238747 629.2776783704259 369.99999442572084L629.2776783704259 369.99999442572084Q623.7360117037592 369.56249442572084 619.8193450370926 369.41666109238747Q615.9235117037592 369.24999442572084 613.0693450370926 369.24999442572084L613.0693450370926 369.24999442572084L607.8193450370926 369.24999442572084Q609.4860117037592 364.91666109238747 613.6110117037592 363.18749442572084Q617.7360117037592 361.4583277590541 623.4235117037592 361.4583277590541L623.4235117037592 361.4583277590541Q625.9860117037592 361.4583277590541 628.6735117037592 361.74999442572084Q631.3818450370926 362.06249442572084 634.2360117037592 362.49999442572084L634.2360117037592 362.49999442572084Q641.8818450370926 350.9583277590541 649.9026783704259 340.0833277590541Q657.9235117037592 329.2083277590541 664.9026783704259 320.72916109238747Q671.8818450370926 312.24999442572084 676.5276783704259 307.91666109238747L676.5276783704259 307.91666109238747Q680.8818450370926 303.7083277590541 683.7360117037592 303.7083277590541L683.7360117037592 303.7083277590541Q685.3818450370926 303.7083277590541 687.4026783704259 304.97916109238747Q689.4235117037592 306.2499944257208 691.6735117037592 308.4999944257208L691.6735117037592 308.4999944257208Q690.1735117037592 309.7083277590541 687.8610117037592 314.87499442572084Q685.5276783704259 320.06249442572084 682.9026783704259 327.85416109238747Q680.2776783704259 335.66666109238747 677.7360117037592 344.9583277590541Q675.1735117037592 354.24999442572084 673.0068450370926 363.93749442572084Q670.8193450370926 373.60416109238747 669.5485117037592 382.31249442572084Q668.2776783704259 390.99999442572084 668.2776783704259 397.60416109238747L668.2776783704259 397.60416109238747Q668.2776783704259 403.31249442572084 669.5485117037592 406.4583277590541Q670.8193450370926 409.60416109238747 673.8193450370926 409.60416109238747L673.8193450370926 409.60416109238747Q677.7360117037592 409.60416109238747 682.6735117037592 404.2083277590541Q687.6318450370926 398.81249442572084 693.4860117037592 387.41666109238747L693.4860117037592 387.41666109238747L694.9860117037592 388.91666109238747Q690.4860117037592 400.91666109238747 683.5068450370926 408.56249442572084Q676.5276783704259 416.2083277590541 669.0276783704259 416.2083277590541L669.0276783704259 416.2083277590541Q662.8818450370926 416.2083277590541 660.1110117037592 410.72916109238747Q657.3193450370926 405.24999442572084 657.3193450370926 396.10416109238747L657.3193450370926 396.10416109238747Q657.3193450370926 391.31249442572084 658.0068450370926 385.60416109238747Q658.6735117037592 379.91666109238747 659.8818450370926 373.74999442572084L659.8818450370926 373.74999442572084Q653.2776783704259 372.7083277590541 647.7985117037592 372.04166109238747Q642.3193450370926 371.35416109238747 637.6735117037592 370.74999442572084L637.6735117037592 370.74999442572084Q630.6318450370926 383.81249442572084 623.9443450370926 397.60416109238747Q617.2776783704259 411.41666109238747 611.5693450370926 424.74999442572084ZM660.9235117037592 368.49999442572084L660.9235117037592 368.49999442572084Q663.1735117037592 358.60416109238747 666.1735117037592 348.47916109238747Q669.1735117037592 338.35416109238747 672.5485117037592 329.2083277590541Q675.9235117037592 320.06249442572084 678.9235117037592 313.16666109238747L678.9235117037592 313.16666109238747Q674.2776783704259 315.99999442572084 668.1943450370926 323.29166109238747Q662.1318450370926 330.56249442572084 655.3818450370926 340.97916109238747Q648.6318450370926 351.41666109238747 641.5693450370926 363.85416109238747L641.5693450370926 363.85416109238747Q646.6735117037592 364.91666109238747 651.6943450370926 366.18749442572084Q656.7360117037592 367.4583277590541 660.9235117037592 368.49999442572084ZM706.2360117037592 419.35416109238747L706.2360117037592 419.35416109238747Q699.1735117037592 419.35416109238747 695.0485117037592 416.29166109238747Q690.9235117037592 413.2083277590541 689.1943450370926 408.7083277590541Q687.4860117037592 404.2083277590541 687.4860117037592 399.7083277590541L687.4860117037592 399.7083277590541Q687.4860117037592 395.2083277590541 688.6735117037592 392.81249442572084Q689.8818450370926 390.41666109238747 691.6110117037592 389.2083277590541Q693.3193450370926 387.99999442572084 694.9026783704259 387.41666109238747Q696.4860117037592 386.81249442572084 697.0693450370926 386.2083277590541L697.0693450370926 386.2083277590541Q701.5693450370926 381.24999442572084 705.3193450370926 375.85416109238747Q709.0693450370926 370.4583277590541 711.9235117037592 364.4583277590541L711.9235117037592 364.4583277590541L711.9235117037592 362.66666109238747Q711.9235117037592 357.10416109238747 713.7985117037592 354.79166109238747Q715.6735117037592 352.4583277590541 717.7776783704259 352.4583277590541L717.7776783704259 352.4583277590541Q718.9860117037592 352.4583277590541 719.5693450370926 353.06249442572084Q720.1735117037592 353.66666109238747 720.1735117037592 354.41666109238747L720.1735117037592 354.41666109238747Q720.1735117037592 355.16666109238747 719.7360117037592 356.81249442572084Q719.2776783704259 358.4583277590541 719.2776783704259 360.99999442572084L719.2776783704259 360.99999442572084Q719.2776783704259 365.9583277590541 721.2360117037592 371.72916109238747Q723.1735117037592 377.49999442572084 725.1318450370926 383.87499442572084Q727.0693450370926 390.24999442572084 727.0693450370926 397.16666109238747L727.0693450370926 397.16666109238747Q727.0693450370926 399.10416109238747 726.8610117037592 400.97916109238747Q726.6318450370926 402.85416109238747 726.1735117037592 404.49999442572084L726.1735117037592 404.49999442572084Q731.4235117037592 403.60416109238747 736.0693450370926 399.79166109238747Q740.7360117037592 395.9583277590541 745.0693450370926 387.56249442572084L745.0693450370926 387.56249442572084L746.4235117037592 389.06249442572084Q743.5693450370926 397.31249442572084 737.8818450370926 401.5833277590541Q732.1735117037592 405.85416109238747 725.4235117037592 406.91666109238747L725.4235117037592 406.91666109238747Q723.0276783704259 413.35416109238747 717.8610117037592 416.35416109238747Q712.6735117037592 419.35416109238747 706.2360117037592 419.35416109238747ZM706.5276783704259 414.10416109238747L706.5276783704259 414.10416109238747Q708.3193450370926 414.10416109238747 711.3193450370926 412.91666109238747Q714.3193450370926 411.7083277590541 715.9860117037592 406.74999442572084L715.9860117037592 406.74999442572084Q709.6735117037592 405.56249442572084 704.7985117037592 401.81249442572084Q699.9235117037592 398.06249442572084 697.5276783704259 394.31249442572084L697.5276783704259 394.31249442572084Q694.2360117037592 394.4583277590541 694.2360117037592 399.56249442572084L694.2360117037592 399.56249442572084Q694.2360117037592 404.9583277590541 697.4443450370926 409.54166109238747Q700.6735117037592 414.10416109238747 706.5276783704259 414.10416109238747ZM716.7360117037592 404.35416109238747L716.7360117037592 404.35416109238747Q717.0276783704259 402.85416109238747 717.1735117037592 401.2083277590541Q717.3193450370926 399.56249442572084 717.3193450370926 397.31249442572084L717.3193450370926 397.31249442572084Q717.3193450370926 390.24999442572084 715.6110117037592 383.29166109238747Q713.8818450370926 376.31249442572084 712.6735117037592 370.16666109238747L712.6735117037592 370.16666109238747Q709.2360117037592 375.85416109238747 705.4026783704259 381.04166109238747Q701.5693450370926 386.2083277590541 698.1318450370926 389.66666109238747L698.1318450370926 389.66666109238747Q700.3818450370926 394.4583277590541 705.1110117037592 398.66666109238747Q709.8193450370926 402.85416109238747 716.7360117037592 404.35416109238747ZM749.2776783704259 417.41666109238747L749.2776783704259 417.41666109238747Q746.4235117037592 417.41666109238747 744.7776783704259 412.60416109238747Q743.1318450370926 407.81249442572084 743.1318450370926 401.81249442572084L743.1318450370926 401.81249442572084Q743.1318450370926 394.60416109238747 745.5276783704259 384.7083277590541Q747.9235117037592 374.81249442572084 751.8193450370926 363.85416109238747Q755.7360117037592 352.91666109238747 760.6110117037592 342.41666109238747Q765.4860117037592 331.91666109238747 770.5693450370926 323.35416109238747Q775.6735117037592 314.81249442572084 780.1735117037592 309.7083277590541Q784.6735117037592 304.60416109238747 787.9860117037592 304.60416109238747L787.9860117037592 304.60416109238747Q790.6735117037592 304.60416109238747 791.7985117037592 307.8333277590541Q792.9235117037592 311.0624944257208 792.9235117037592 314.06249442572084L792.9235117037592 314.06249442572084Q792.9235117037592 318.24999442572084 791.0485117037592 324.24999442572084Q789.1735117037592 330.24999442572084 785.8818450370926 337.0833277590541Q782.5693450370926 343.91666109238747 778.2360117037592 350.49999442572084Q773.8818450370926 357.10416109238747 768.7776783704259 362.5833277590541Q763.6735117037592 368.06249442572084 758.4235117037592 371.2083277590541L758.4235117037592 371.2083277590541Q756.6318450370926 375.56249442572084 755.3610117037592 380.9583277590541Q754.0693450370926 386.35416109238747 753.4860117037592 391.54166109238747Q752.8818450370926 396.7083277590541 752.8818450370926 400.74999442572084L752.8818450370926 400.74999442572084Q752.8818450370926 402.41666109238747 752.9443450370926 403.60416109238747Q753.0276783704259 404.81249442572084 753.1735117037592 405.85416109238747L753.1735117037592 405.85416109238747Q755.2776783704259 399.7083277590541 757.7568450370926 393.93749442572084Q760.2360117037592 388.16666109238747 763.0693450370926 383.29166109238747Q765.9235117037592 378.41666109238747 769.1526783704259 374.72916109238747Q772.3818450370926 371.06249442572084 775.9860117037592 369.04166109238747Q779.5693450370926 366.99999442572084 783.6318450370926 366.99999442572084L783.6318450370926 366.99999442572084Q787.8193450370926 366.99999442572084 790.2985117037592 369.04166109238747Q792.7776783704259 371.06249442572084 793.9026783704259 374.12499442572084Q795.0276783704259 377.2083277590541 795.0276783704259 380.49999442572084L795.0276783704259 380.49999442572084Q795.0276783704259 385.16666109238747 793.4443450370926 389.49999442572084Q791.8818450370926 393.85416109238747 790.2360117037592 397.91666109238747Q788.5693450370926 401.9583277590541 788.5693450370926 405.7083277590541L788.5693450370926 405.7083277590541Q788.5693450370926 408.7083277590541 789.8610117037592 410.06249442572084Q791.1318450370926 411.41666109238747 793.0693450370926 411.41666109238747L793.0693450370926 411.41666109238747Q796.5276783704259 411.41666109238747 800.7985117037592 408.10416109238747Q805.0693450370926 404.81249442572084 809.2776783704259 399.3333277590541Q813.4860117037592 393.85416109238747 816.4860117037592 387.41666109238747L816.4860117037592 387.41666109238747L818.4235117037592 389.2083277590541Q815.2776783704259 396.56249442572084 810.7776783704259 402.47916109238747Q806.2776783704259 408.41666109238747 800.8818450370926 411.85416109238747Q795.4860117037592 415.31249442572084 789.6318450370926 415.31249442572084L789.6318450370926 415.31249442572084Q784.5276783704259 415.31249442572084 781.9026783704259 412.60416109238747Q779.2776783704259 409.91666109238747 779.2776783704259 405.85416109238747L779.2776783704259 405.85416109238747Q779.2776783704259 402.7083277590541 780.4860117037592 398.81249442572084Q781.6735117037592 394.91666109238747 782.7985117037592 390.85416109238747Q783.9235117037592 386.81249442572084 783.9235117037592 383.2083277590541L783.9235117037592 383.2083277590541Q783.9235117037592 379.31249442572084 782.2776783704259 377.66666109238747Q780.6318450370926 375.99999442572084 778.2360117037592 375.99999442572084L778.2360117037592 375.99999442572084Q774.4860117037592 375.99999442572084 771.4860117037592 378.99999442572084Q768.4860117037592 381.99999442572084 766.0068450370926 386.72916109238747Q763.5276783704259 391.4583277590541 761.3610117037592 396.7083277590541Q759.1735117037592 401.9583277590541 757.2360117037592 406.68749442572084Q755.2776783704259 411.41666109238747 753.3193450370926 414.41666109238747Q751.3818450370926 417.41666109238747 749.2776783704259 417.41666109238747ZM760.3818450370926 365.35416109238747L760.3818450370926 365.35416109238747Q764.5693450370926 362.06249442572084 768.5485117037592 356.9583277590541Q772.5276783704259 351.85416109238747 775.9860117037592 346.0833277590541Q779.4235117037592 340.31249442572084 782.1318450370926 334.74999442572084Q784.8193450370926 329.2083277590541 786.3193450370926 324.7083277590541Q787.8193450370926 320.2083277590541 787.8193450370926 317.9583277590541L787.8193450370926 317.9583277590541Q787.8193450370926 317.2083277590541 787.6735117037592 316.97916109238747Q787.5276783704259 316.74999442572084 787.2360117037592 316.74999442572084L787.2360117037592 316.74999442572084Q786.1735117037592 316.74999442572084 782.9443450370926 320.87499442572084Q779.7360117037592 324.99999442572084 775.5276783704259 331.91666109238747Q771.3193450370926 338.81249442572084 767.2776783704259 347.49999442572084Q763.2360117037592 356.2083277590541 760.3818450370926 365.35416109238747ZM826.0693450370926 416.2083277590541L826.0693450370926 416.2083277590541Q819.6318450370926 416.2083277590541 816.8610117037592 411.79166109238747Q814.0693450370926 407.35416109238747 814.0693450370926 400.74999442572084L814.0693450370926 400.74999442572084Q814.0693450370926 393.56249442572084 816.7776783704259 383.66666109238747Q819.4860117037592 373.74999442572084 823.9026783704259 362.81249442572084Q828.3193450370926 351.85416109238747 833.5693450370926 341.43749442572084Q838.8193450370926 330.99999442572084 844.0693450370926 322.4583277590541Q849.3193450370926 313.91666109238747 853.7568450370926 308.8124944257208Q858.1735117037592 303.7083277590541 860.7360117037592 303.7083277590541L860.7360117037592 303.7083277590541Q862.3818450370926 303.7083277590541 863.4235117037592 305.5833277590541Q864.4860117037592 307.4583277590541 865.0693450370926 310.0833277590541Q865.6735117037592 312.7083277590541 865.6735117037592 314.81249442572084L865.6735117037592 314.81249442572084Q865.6735117037592 318.85416109238747 863.6526783704259 325.37499442572084Q861.6318450370926 331.91666109238747 857.9443450370926 339.93749442572084Q854.2776783704259 347.9583277590541 849.2568450370926 356.12499442572084Q844.2360117037592 364.31249442572084 838.2985117037592 371.81249442572084Q832.3818450370926 379.31249442572084 825.7776783704259 384.7083277590541L825.7776783704259 384.7083277590541Q824.8818450370926 388.74999442572084 824.3610117037592 392.5833277590541Q823.8193450370926 396.41666109238747 823.8193450370926 399.85416109238747L823.8193450370926 399.85416109238747Q823.8193450370926 405.7083277590541 825.4860117037592 408.56249442572084Q827.1318450370926 411.41666109238747 830.4235117037592 411.41666109238747L830.4235117037592 411.41666109238747Q834.4860117037592 411.41666109238747 838.4443450370926 407.81249442572084Q842.4235117037592 404.2083277590541 845.9443450370926 398.72916109238747Q849.4860117037592 393.24999442572084 852.0276783704259 387.41666109238747L852.0276783704259 387.41666109238747L854.2776783704259 388.60416109238747Q848.2776783704259 401.35416109238747 841.2360117037592 408.79166109238747Q834.1735117037592 416.2083277590541 826.0693450370926 416.2083277590541ZM827.1318450370926 379.60416109238747L827.1318450370926 379.60416109238747Q832.3818450370926 374.35416109238747 837.3193450370926 367.54166109238747Q842.2776783704259 360.7083277590541 846.5485117037592 353.35416109238747Q850.8193450370926 345.99999442572084 854.1318450370926 339.10416109238747Q857.4235117037592 332.2083277590541 859.2360117037592 326.72916109238747Q861.0276783704259 321.24999442572084 861.0276783704259 318.24999442572084L861.0276783704259 318.24999442572084Q861.0276783704259 316.74999442572084 860.6526783704259 316.31249442572084Q860.2776783704259 315.85416109238747 859.9860117037592 315.85416109238747L859.9860117037592 315.85416109238747Q858.7776783704259 315.85416109238747 855.8610117037592 319.68749442572084Q852.9235117037592 323.49999442572084 849.0276783704259 329.9583277590541Q845.1318450370926 336.41666109238747 841.0693450370926 344.66666109238747Q837.0276783704259 352.91666109238747 833.3610117037592 361.91666109238747Q829.6735117037592 370.91666109238747 827.1318450370926 379.60416109238747ZM865.2360117037592 418.31249442572084L865.2360117037592 418.31249442572084Q856.0693450370926 418.31249442572084 851.5068450370926 413.29166109238747Q846.9235117037592 408.24999442572084 846.9235117037592 400.91666109238747L846.9235117037592 400.91666109238747Q846.9235117037592 394.16666109238747 850.2985117037592 386.66666109238747Q853.6735117037592 379.16666109238747 859.2985117037592 372.56249442572084Q864.9235117037592 365.9583277590541 871.6735117037592 361.8333277590541Q878.4235117037592 357.7083277590541 885.0276783704259 357.7083277590541L885.0276783704259 357.7083277590541Q888.4860117037592 357.7083277590541 891.4026783704259 359.49999442572084Q894.3193450370926 361.31249442572084 894.3193450370926 366.85416109238747L894.3193450370926 366.85416109238747Q894.3193450370926 372.56249442572084 890.9443450370926 377.5833277590542Q887.5693450370926 382.60416109238747 882.1110117037593 386.49999442572084Q876.6318450370926 390.41666109238747 870.1110117037592 392.87499442572084Q863.5693450370926 395.35416109238747 857.1318450370926 395.9583277590541L857.1318450370926 395.9583277590541Q856.8193450370926 397.4583277590541 856.6735117037592 398.81249442572084Q856.5276783704259 400.16666109238747 856.5276783704259 401.35416109238747L856.5276783704259 401.35416109238747Q856.5276783704259 403.60416109238747 857.0485117037592 405.85416109238747Q857.5693450370926 408.10416109238747 858.9235117037592 409.97916109238747Q860.2776783704259 411.85416109238747 862.6110117037592 412.91666109238747Q864.9235117037592 413.9583277590541 868.3818450370926 413.9583277590541L868.3818450370926 413.9583277590541Q874.8193450370925 413.9583277590541 881.1318450370926 410.29166109238747Q887.4235117037592 406.60416109238747 892.8193450370926 400.60416109238747Q898.2360117037592 394.60416109238747 901.9860117037592 387.41666109238747L901.9860117037592 387.41666109238747L903.7776783704259 388.74999442572084Q899.7360117037592 397.74999442572084 893.5068450370926 404.35416109238747Q887.2776783704259 410.9583277590541 880.0068450370926 414.62499442572084Q872.7360117037592 418.31249442572084 865.2360117037592 418.31249442572084ZM857.8818450370926 393.10416109238747L857.8818450370926 393.10416109238747Q861.9235117037592 391.74999442572084 867.0276783704259 389.12499442572084Q872.1318450370926 386.49999442572084 876.8610117037592 382.91666109238747Q881.5693450370926 379.31249442572084 884.6526783704259 374.9583277590541Q887.7360117037592 370.60416109238747 887.7360117037592 365.81249442572084L887.7360117037592 365.81249442572084Q887.7360117037592 364.16666109238747 887.1318450370926 363.24999442572084Q886.5276783704259 362.35416109238747 884.5693450370926 362.35416109238747L884.5693450370926 362.35416109238747Q880.9860117037592 362.35416109238747 876.9235117037592 365.12499442572084Q872.8818450370926 367.91666109238747 869.1318450370926 372.41666109238747Q865.3818450370926 376.91666109238747 862.3818450370926 382.31249442572084Q859.3818450370926 387.7083277590542 857.8818450370926 393.10416109238747ZM905.4235117037593 453.7083277590542L905.4235117037593 453.7083277590542Q901.6735117037592 453.7083277590542 898.8193450370926 451.68749442572084Q895.9860117037593 449.66666109238747 895.9860117037593 445.74999442572084L895.9860117037593 445.74999442572084Q895.9860117037593 440.9583277590541 898.3818450370926 437.2083277590542Q900.7776783704259 433.4583277590542 904.8193450370926 430.31249442572084Q908.8818450370926 427.16666109238747 914.1318450370926 424.31249442572084Q919.3818450370926 421.4583277590541 925.0693450370926 418.60416109238747L925.0693450370926 418.60416109238747Q927.1735117037593 413.06249442572084 929.3610117037592 406.22916109238747Q931.5276783704259 399.41666109238747 933.4860117037593 391.16666109238747L933.4860117037593 391.16666109238747Q928.6735117037593 398.9583277590541 923.1943450370926 404.5833277590541Q917.7360117037593 410.2083277590541 911.5693450370926 410.2083277590541L911.5693450370926 410.2083277590541Q908.7360117037593 410.2083277590541 905.9443450370926 408.93749442572084Q903.1735117037592 407.66666109238747 901.3818450370926 404.9583277590541Q899.5693450370926 402.24999442572084 899.5693450370926 398.06249442572084L899.5693450370926 398.06249442572084Q899.5693450370926 393.85416109238747 901.0068450370926 388.31249442572084Q902.4235117037593 382.74999442572084 904.5276783704259 377.49999442572084Q906.6318450370926 372.24999442572084 908.8818450370926 368.81249442572084Q911.1318450370926 365.35416109238747 912.7776783704259 365.35416109238747L912.7776783704259 365.35416109238747Q913.3818450370926 365.35416109238747 914.9443450370926 365.81249442572084Q916.5276783704259 366.24999442572084 917.9443450370926 367.0833277590541Q919.3818450370926 367.91666109238747 919.3818450370926 368.81249442572084L919.3818450370926 368.81249442572084Q918.0276783704259 370.74999442572084 916.3818450370926 374.35416109238747Q914.7360117037593 377.9583277590541 913.1526783704259 382.37499442572084Q911.5693450370926 386.81249442572084 910.5276783704259 390.99999442572084Q909.4860117037592 395.2083277590541 909.4860117037592 398.2083277590541L909.4860117037592 398.2083277590541Q909.4860117037592 400.91666109238747 910.6735117037592 402.56249442572084Q911.8818450370926 404.2083277590541 914.8818450370926 404.2083277590541L914.8818450370926 404.2083277590541Q917.7360117037593 404.2083277590541 921.2568450370926 401.43749442572084Q924.7776783704259 398.66666109238747 928.2985117037592 394.31249442572084Q931.8193450370926 389.9583277590541 934.8193450370926 384.99999442572084L934.8193450370926 384.99999442572084Q935.2776783704259 383.35416109238747 935.6526783704259 381.62499442572084Q936.0276783704259 379.91666109238747 936.3193450370926 378.10416109238747L936.3193450370926 378.10416109238747Q936.7776783704259 375.99999442572084 938.5068450370926 373.22916109238747Q940.2360117037592 370.4583277590541 943.9860117037592 370.4583277590541L943.9860117037592 370.4583277590541Q944.7360117037592 370.4583277590541 945.4860117037592 370.54166109238747Q946.2360117037593 370.60416109238747 947.1318450370926 370.91666109238747L947.1318450370926 370.91666109238747Q947.1318450370926 373.31249442572084 945.6943450370926 379.8333277590541Q944.2776783704259 386.35416109238747 941.6526783704259 395.06249442572084Q939.0276783704259 403.74999442572084 935.4235117037592 412.91666109238747L935.4235117037592 412.91666109238747Q942.4860117037592 410.2083277590541 949.2360117037593 403.97916109238747Q955.9860117037592 397.74999442572084 960.1735117037593 387.41666109238747L960.1735117037593 387.41666109238747L962.1318450370926 388.91666109238747Q959.8818450370926 396.10416109238747 955.2985117037593 401.43749442572084Q950.7360117037593 406.74999442572084 945.0276783704259 410.5833277590541Q939.3193450370926 414.41666109238747 933.7776783704259 416.9583277590542L933.7776783704259 416.9583277590542Q929.8818450370926 426.56249442572084 925.2985117037592 434.9583277590542Q920.7360117037592 443.35416109238747 915.6943450370926 448.54166109238747Q910.6735117037592 453.7083277590542 905.4235117037593 453.7083277590542ZM904.6735117037592 448.91666109238747L904.6735117037592 448.91666109238747Q906.9235117037593 448.91666109238747 912.2568450370926 442.97916109238747Q917.5693450370926 437.06249442572084 923.5693450370926 422.2083277590541L923.5693450370926 422.2083277590541Q917.4235117037592 425.49999442572084 912.1735117037592 428.72916109238747Q906.9235117037593 431.9583277590542 903.7776783704259 435.7083277590542Q900.6318450370926 439.4583277590541 900.6318450370926 444.41666109238747L900.6318450370926 444.41666109238747Q900.6318450370926 445.60416109238747 901.5276783704259 447.24999442572084Q902.4235117037593 448.91666109238747 904.6735117037592 448.91666109238747ZM1026.7776783704257 424.74999442572084L1026.7776783704257 424.74999442572084Q1018.6735117037593 424.74999442572084 1011.4860117037593 421.8333277590541Q1004.2776783704259 418.91666109238747 999.8610117037591 412.91666109238747Q995.4235117037593 406.91666109238747 995.4235117037593 397.91666109238747L995.4235117037593 397.91666109238747Q995.4235117037593 390.10416109238747 998.5068450370925 385.74999442572084Q1001.5693450370925 381.41666109238747 1006.0693450370926 379.60416109238747Q1010.5693450370926 377.81249442572084 1014.6318450370926 377.81249442572084L1014.6318450370926 377.81249442572084Q1010.5693450370926 382.16666109238747 1008.4860117037593 387.41666109238747Q1006.3818450370925 392.66666109238747 1006.3818450370925 397.91666109238747L1006.3818450370925 397.91666109238747Q1006.3818450370925 403.4583277590541 1008.8610117037591 408.24999442572084Q1011.3193450370925 413.06249442572084 1016.4235117037593 415.97916109238747Q1021.5276783704259 418.91666109238747 1029.3193450370927 418.91666109238747L1029.3193450370927 418.91666109238747Q1036.0693450370927 418.91666109238747 1042.5276783704257 416.43749442572084Q1048.9860117037592 413.9583277590541 1053.1110117037592 409.0833277590541Q1057.2360117037592 404.2083277590541 1057.2360117037592 396.99999442572084L1057.2360117037592 396.99999442572084Q1057.2360117037592 390.56249442572084 1053.9235117037592 385.91666109238747Q1050.6318450370927 381.24999442572084 1045.4443450370927 377.66666109238747Q1040.2776783704257 374.06249442572084 1034.4235117037592 370.74999442572084Q1028.5693450370927 367.4583277590541 1023.4026783704259 363.79166109238747Q1018.2360117037591 360.10416109238747 1014.9235117037593 355.31249442572084Q1011.6318450370926 350.49999442572084 1011.6318450370926 343.74999442572084L1011.6318450370926 343.74999442572084Q1011.6318450370926 337.4583277590541 1014.6318450370926 330.56249442572084Q1017.6318450370926 323.66666109238747 1023.2568450370926 317.49999442572084Q1028.8818450370927 311.35416109238747 1036.7568450370927 307.54166109238747Q1044.6318450370927 303.7083277590541 1054.3818450370927 303.7083277590541L1054.3818450370927 303.7083277590541Q1063.2360117037592 303.7083277590541 1066.6735117037592 307.97916109238747Q1070.1318450370927 312.24999442572084 1070.1318450370927 318.7083277590541L1070.1318450370927 318.7083277590541Q1070.1318450370927 324.10416109238747 1068.2568450370927 330.3333277590541Q1066.3818450370927 336.56249442572084 1063.6735117037592 342.18749442572084Q1060.9860117037592 347.81249442572084 1058.5693450370927 351.7083277590541L1058.5693450370927 351.7083277590541Q1055.8818450370927 351.10416109238747 1054.7568450370927 349.37499442572084Q1053.6318450370927 347.66666109238747 1053.6318450370927 345.24999442572084L1053.6318450370927 345.24999442572084Q1053.6318450370927 342.10416109238747 1054.9860117037592 338.06249442572084Q1056.3193450370927 333.99999442572084 1058.0485117037592 329.66666109238747Q1059.7776783704257 325.31249442572084 1061.1318450370927 321.18749442572084Q1062.4860117037592 317.06249442572084 1062.4860117037592 313.74999442572084L1062.4860117037592 313.74999442572084Q1062.4860117037592 310.7499944257208 1060.6735117037592 309.04166109238747Q1058.8818450370927 307.3124944257208 1054.0693450370927 307.3124944257208L1054.0693450370927 307.3124944257208Q1047.0276783704257 307.3124944257208 1041.0276783704257 310.60416109238747Q1035.0276783704257 313.91666109238747 1030.5276783704257 319.0833277590541Q1026.0276783704257 324.24999442572084 1023.5485117037593 329.9583277590541Q1021.0693450370926 335.66666109238747 1021.0693450370926 340.31249442572084L1021.0693450370926 340.31249442572084Q1021.0693450370926 345.85416109238747 1024.2985117037592 349.8333277590541Q1027.5276783704257 353.81249442572084 1032.6318450370927 357.04166109238747Q1037.7360117037592 360.24999442572084 1043.5068450370927 363.47916109238747Q1049.2776783704257 366.7083277590541 1054.3818450370927 370.60416109238747Q1059.4860117037592 374.49999442572084 1062.6943450370927 379.8333277590541Q1065.9235117037592 385.16666109238747 1065.9235117037592 392.81249442572084L1065.9235117037592 392.81249442572084Q1065.9235117037592 400.60416109238747 1062.4860117037592 406.54166109238747Q1059.0276783704257 412.4583277590541 1053.2568450370927 416.49999442572084Q1047.4860117037592 420.56249442572084 1040.5693450370927 422.66666109238747Q1033.6735117037592 424.74999442572084 1026.7776783704257 424.74999442572084ZM1152.3193450370927 416.35416109238747L1152.3193450370927 416.35416109238747Q1147.0693450370927 416.35416109238747 1144.6735117037592 413.12499442572084Q1142.2776783704262 409.91666109238747 1142.2776783704262 405.41666109238747L1142.2776783704262 405.41666109238747Q1142.2776783704262 401.66666109238747 1143.4026783704262 397.91666109238747Q1144.5276783704262 394.16666109238747 1145.6526783704257 390.56249442572084Q1146.7776783704262 386.9583277590541 1146.7776783704262 384.10416109238747L1146.7776783704262 384.10416109238747Q1146.7776783704262 381.10416109238747 1145.4235117037592 379.91666109238747Q1144.0693450370927 378.7083277590541 1142.4235117037592 378.7083277590541L1142.4235117037592 378.7083277590541Q1138.6735117037592 378.7083277590541 1134.2568450370927 384.56249442572084Q1129.8193450370927 390.41666109238747 1122.7776783704257 401.06249442572084L1122.7776783704257 401.06249442572084Q1120.3818450370927 404.66666109238747 1118.7360117037592 408.3333277590541Q1117.0693450370927 411.99999442572084 1115.5693450370927 414.99999442572084L1115.5693450370927 414.99999442572084Q1114.3818450370927 414.99999442572084 1112.5693450370927 414.7083277590541Q1110.7776783704257 414.41666109238747 1109.3610117037592 413.72916109238747Q1107.9235117037592 413.06249442572084 1107.9235117037592 411.99999442572084L1107.9235117037592 411.99999442572084Q1107.9235117037592 410.9583277590541 1109.3610117037592 406.97916109238747Q1110.7776783704257 402.99999442572084 1112.6526783704257 397.68749442572084Q1114.5276783704257 392.35416109238747 1115.9443450370927 386.87499442572084Q1117.3818450370927 381.41666109238747 1117.3818450370927 377.49999442572084L1117.3818450370927 377.49999442572084Q1117.3818450370927 374.9583277590541 1116.5485117037592 373.37499442572084Q1115.7360117037592 371.81249442572084 1113.6318450370927 371.81249442572084L1113.6318450370927 371.81249442572084Q1110.3193450370927 371.81249442572084 1105.6735117037592 375.79166109238747Q1101.0276783704257 379.74999442572084 1096.0693450370927 386.2083277590541Q1091.1318450370927 392.66666109238747 1086.6943450370927 400.37499442572084Q1082.2776783704257 408.10416109238747 1079.5693450370927 415.74999442572084L1079.5693450370927 415.74999442572084Q1078.2360117037592 415.74999442572084 1076.2776783704257 415.31249442572084Q1074.3193450370927 414.85416109238747 1072.9026783704257 414.10416109238747Q1071.4860117037592 413.35416109238747 1071.4860117037592 412.60416109238747L1071.4860117037592 412.60416109238747Q1071.4860117037592 411.7083277590541 1073.0485117037592 407.29166109238747Q1074.6318450370927 402.85416109238747 1076.6526783704257 396.62499442572084Q1078.6735117037592 390.41666109238747 1080.2568450370927 383.9583277590541Q1081.8193450370927 377.49999442572084 1081.8193450370927 372.56249442572084L1081.8193450370927 372.56249442572084Q1082.7360117037592 371.49999442572084 1084.6735117037592 370.4583277590541Q1086.6318450370927 369.41666109238747 1088.7360117037592 369.41666109238747L1088.7360117037592 369.41666109238747Q1090.8193450370927 369.41666109238747 1091.7985117037592 370.4583277590541Q1092.7776783704257 371.49999442572084 1092.7776783704257 373.31249442572084L1092.7776783704257 373.31249442572084Q1092.7776783704257 375.24999442572084 1091.6526783704257 379.97916109238747Q1090.5276783704257 384.7083277590541 1088.8818450370927 390.41666109238747L1088.8818450370927 390.41666109238747Q1091.8818450370927 385.60416109238747 1095.6943450370927 380.5833277590541Q1099.5276783704257 375.56249442572084 1103.7360117037592 371.35416109238747Q1107.9235117037592 367.16666109238747 1112.1943450370927 364.54166109238747Q1116.4860117037592 361.91666109238747 1120.5276783704262 361.91666109238747L1120.5276783704262 361.91666109238747Q1125.1735117037592 361.91666109238747 1126.9026783704262 365.29166109238747Q1128.6318450370927 368.66666109238747 1128.6318450370927 373.31249442572084L1128.6318450370927 373.31249442572084Q1128.6318450370927 377.06249442572084 1127.7985117037592 381.18749442572084Q1126.9860117037592 385.31249442572084 1125.9235117037592 388.8333277590541Q1124.8818450370927 392.35416109238747 1123.9860117037592 394.4583277590541L1123.9860117037592 394.4583277590541Q1127.1318450370927 388.74999442572084 1130.9443450370927 383.43749442572084Q1134.7776783704262 378.10416109238747 1139.2776783704262 374.72916109238747Q1143.7776783704262 371.35416109238747 1148.8818450370927 371.35416109238747L1148.8818450370927 371.35416109238747Q1153.6735117037592 371.35416109238747 1155.5485117037592 374.2083277590541Q1157.4235117037592 377.06249442572084 1157.4235117037592 380.9583277590541L1157.4235117037592 380.9583277590541Q1157.4235117037592 384.85416109238747 1156.0693450370927 389.49999442572084Q1154.7360117037592 394.16666109238747 1153.2985117037592 398.49999442572084Q1151.8818450370927 402.85416109238747 1151.8818450370927 405.99999442572084L1151.8818450370927 405.99999442572084Q1151.8818450370927 407.9583277590541 1152.8610117037592 409.54166109238747Q1153.8193450370927 411.10416109238747 1156.3818450370927 411.10416109238747L1156.3818450370927 411.10416109238747Q1160.5693450370927 411.10416109238747 1164.2568450370927 407.29166109238747Q1167.9235117037592 403.4583277590541 1171.0693450370927 397.97916109238747Q1174.2360117037592 392.49999442572084 1176.4860117037592 387.41666109238747L1176.4860117037592 387.41666109238747L1178.2776783704262 389.49999442572084Q1175.8818450370927 395.81249442572084 1172.1318450370927 402.04166109238747Q1168.3818450370927 408.24999442572084 1163.3610117037592 412.31249442572084Q1158.3193450370927 416.35416109238747 1152.3193450370927 416.35416109238747ZM1184.4235117037592 415.60416109238747L1184.4235117037592 415.60416109238747Q1178.5693450370927 415.60416109238747 1175.7360117037592 411.93749442572084Q1172.8818450370927 408.24999442572084 1172.8818450370927 402.99999442572084L1172.8818450370927 402.99999442572084Q1172.8818450370927 399.56249442572084 1174.1526783704257 394.31249442572084Q1175.4235117037592 389.06249442572084 1177.5276783704262 383.29166109238747Q1179.6318450370927 377.49999442572084 1182.4026783704262 372.41666109238747Q1185.1735117037592 367.31249442572084 1188.3193450370927 364.0833277590541Q1191.4860117037592 360.85416109238747 1194.4860117037592 360.85416109238747L1194.4860117037592 360.85416109238747Q1195.8193450370927 360.85416109238747 1196.7985117037592 361.68749442572084Q1197.7776783704262 362.49999442572084 1197.7776783704262 364.16666109238747L1197.7776783704262 364.16666109238747Q1197.7776783704262 365.9583277590541 1195.4443450370927 369.99999442572084Q1193.1318450370927 374.06249442572084 1189.9860117037592 379.31249442572084Q1186.8193450370927 384.56249442572084 1184.5068450370927 390.3333277590541Q1182.1735117037592 396.10416109238747 1182.1735117037592 401.35416109238747L1182.1735117037592 401.35416109238747Q1182.1735117037592 406.74999442572084 1183.9860117037592 408.56249442572084Q1185.7776783704257 410.35416109238747 1189.5276783704257 410.35416109238747L1189.5276783704257 410.35416109238747Q1194.6318450370927 410.35416109238747 1200.4026783704262 405.24999442572084Q1206.1735117037592 400.16666109238747 1212.6318450370927 387.41666109238747L1212.6318450370927 387.41666109238747L1213.9860117037592 388.91666109238747Q1209.6318450370927 401.81249442572084 1201.4443450370927 408.7083277590541Q1193.2776783704262 415.60416109238747 1184.4235117037592 415.60416109238747ZM1202.4235117037592 346.91666109238747L1202.4235117037592 346.91666109238747Q1200.0276783704262 346.91666109238747 1198.1526783704257 345.7083277590541Q1196.2776783704262 344.49999442572084 1196.2776783704262 341.9583277590542L1196.2776783704262 341.9583277590542Q1196.2776783704262 338.81249442572084 1199.9443450370927 336.47916109238747Q1203.6318450370927 334.16666109238747 1207.2360117037592 334.16666109238747L1207.2360117037592 334.16666109238747Q1209.4860117037592 334.16666109238747 1210.8193450370927 335.2083277590541Q1212.1735117037592 336.24999442572084 1212.1735117037592 338.81249442572084L1212.1735117037592 338.81249442572084Q1212.1735117037592 341.66666109238747 1209.1110117037592 344.29166109238747Q1206.0276783704262 346.91666109238747 1202.4235117037592 346.91666109238747ZM1222.5276783704262 418.60416109238747L1222.5276783704262 418.60416109238747Q1216.0693450370927 418.60416109238747 1212.6318450370927 414.85416109238747Q1209.1735117037592 411.10416109238747 1209.1735117037592 403.74999442572084L1209.1735117037592 403.74999442572084Q1209.1735117037592 397.16666109238747 1211.6526783704257 387.47916109238747Q1214.1318450370927 377.81249442572084 1217.8818450370927 367.60416109238747L1217.8818450370927 367.60416109238747Q1216.3818450370927 367.31249442572084 1215.0276783704262 367.0833277590541Q1213.6735117037592 366.85416109238747 1212.4860117037592 366.41666109238747L1212.4860117037592 366.41666109238747L1212.4860117037592 363.7083277590541Q1213.6735117037592 363.85416109238747 1215.3193450370927 363.99999442572084Q1216.9860117037592 364.16666109238747 1219.0693450370927 364.31249442572084L1219.0693450370927 364.31249442572084Q1222.2360117037592 356.2083277590541 1225.8193450370927 348.62499442572084Q1229.4235117037592 341.06249442572084 1232.9443450370927 335.12499442572084Q1236.4860117037592 329.2083277590541 1239.6943450370927 325.68749442572084Q1242.9235117037592 322.16666109238747 1245.1735117037592 322.16666109238747L1245.1735117037592 322.16666109238747Q1246.3818450370927 322.16666109238747 1247.3610117037592 322.97916109238747Q1248.3193450370927 323.81249442572084 1248.3193450370927 325.4583277590541L1248.3193450370927 325.4583277590541Q1248.3193450370927 327.99999442572084 1245.1735117037592 333.79166109238747Q1242.0276783704257 339.56249442572084 1237.3818450370927 347.49999442572084Q1232.7360117037592 355.4583277590541 1228.3818450370927 364.74999442572084L1228.3818450370927 364.74999442572084Q1229.7360117037592 364.74999442572084 1231.1526783704262 364.74999442572084Q1232.5693450370927 364.74999442572084 1233.9235117037592 364.74999442572084L1233.9235117037592 364.74999442572084Q1238.8818450370927 364.74999442572084 1244.3610117037592 364.60416109238747Q1249.8193450370927 364.4583277590541 1255.3818450370927 363.85416109238747L1255.3818450370927 363.85416109238747L1255.3818450370927 366.56249442572084Q1247.1318450370927 367.4583277590541 1240.6110117037592 367.91666109238747Q1234.0693450370927 368.35416109238747 1228.9860117037592 368.35416109238747L1228.9860117037592 368.35416109238747Q1228.3818450370927 368.35416109238747 1227.8610117037592 368.35416109238747Q1227.3193450370927 368.35416109238747 1226.7360117037592 368.35416109238747L1226.7360117037592 368.35416109238747Q1223.2776783704257 376.31249442572084 1220.8818450370927 384.7083277590541Q1218.4860117037592 393.10416109238747 1218.4860117037592 401.06249442572084L1218.4860117037592 401.06249442572084Q1218.4860117037592 407.49999442572084 1220.4235117037592 410.29166109238747Q1222.3818450370927 413.06249442572084 1226.8818450370927 413.06249442572084L1226.8818450370927 413.06249442572084Q1234.6735117037592 413.06249442572084 1242.1735117037592 406.16666109238747Q1249.6735117037592 399.24999442572084 1255.3818450370927 387.41666109238747L1255.3818450370927 387.41666109238747L1257.3193450370927 388.91666109238747Q1253.7360117037592 397.31249442572084 1248.2568450370927 404.06249442572084Q1242.7776783704257 410.81249442572084 1236.1735117037592 414.7083277590541Q1229.5693450370927 418.60416109238747 1222.5276783704262 418.60416109238747ZM1259.5693450370927 417.41666109238747L1259.5693450370927 417.41666109238747Q1256.7360117037592 417.41666109238747 1255.0693450370927 412.60416109238747Q1253.4235117037592 407.81249442572084 1253.4235117037592 401.81249442572084L1253.4235117037592 401.81249442572084Q1253.4235117037592 394.60416109238747 1255.8193450370927 384.7083277590541Q1258.2360117037592 374.81249442572084 1262.1318450370927 363.85416109238747Q1266.0276783704262 352.91666109238747 1270.9026783704257 342.41666109238747Q1275.7776783704262 331.91666109238747 1280.8818450370927 323.35416109238747Q1285.9860117037592 314.81249442572084 1290.4860117037592 309.7083277590541Q1294.9860117037592 304.60416109238747 1298.2776783704257 304.60416109238747L1298.2776783704257 304.60416109238747Q1300.9860117037592 304.60416109238747 1302.1110117037592 307.8333277590541Q1303.2360117037592 311.0624944257208 1303.2360117037592 314.06249442572084L1303.2360117037592 314.06249442572084Q1303.2360117037592 318.24999442572084 1301.3610117037592 324.24999442572084Q1299.4860117037592 330.24999442572084 1296.1735117037592 337.0833277590541Q1292.8818450370927 343.91666109238747 1288.5276783704262 350.49999442572084Q1284.1735117037592 357.10416109238747 1279.0693450370927 362.5833277590541Q1273.9860117037592 368.06249442572084 1268.7360117037592 371.2083277590541L1268.7360117037592 371.2083277590541Q1266.9235117037592 375.56249442572084 1265.6526783704262 380.9583277590541Q1264.3818450370927 386.35416109238747 1263.7776783704257 391.54166109238747Q1263.1735117037592 396.7083277590541 1263.1735117037592 400.74999442572084L1263.1735117037592 400.74999442572084Q1263.1735117037592 402.41666109238747 1263.2568450370927 403.60416109238747Q1263.3193450370927 404.81249442572084 1263.4860117037592 405.85416109238747L1263.4860117037592 405.85416109238747Q1265.5693450370927 399.7083277590541 1268.0485117037592 393.93749442572084Q1270.5276783704257 388.16666109238747 1273.3818450370927 383.29166109238747Q1276.2360117037592 378.41666109238747 1279.4443450370927 374.72916109238747Q1282.6735117037592 371.06249442572084 1286.2776783704257 369.04166109238747Q1289.8818450370927 366.99999442572084 1293.9235117037592 366.99999442572084L1293.9235117037592 366.99999442572084Q1298.1318450370927 366.99999442572084 1300.6110117037592 369.04166109238747Q1303.0693450370927 371.06249442572084 1304.1943450370927 374.12499442572084Q1305.3193450370927 377.2083277590541 1305.3193450370927 380.49999442572084L1305.3193450370927 380.49999442572084Q1305.3193450370927 385.16666109238747 1303.7568450370927 389.49999442572084Q1302.1735117037592 393.85416109238747 1300.5276783704262 397.91666109238747Q1298.8818450370927 401.9583277590541 1298.8818450370927 405.7083277590541L1298.8818450370927 405.7083277590541Q1298.8818450370927 408.7083277590541 1300.1526783704262 410.06249442572084Q1301.4235117037592 411.41666109238747 1303.3818450370927 411.41666109238747L1303.3818450370927 411.41666109238747Q1306.8193450370927 411.41666109238747 1311.1110117037592 408.10416109238747Q1315.3818450370927 404.81249442572084 1319.5693450370927 399.3333277590541Q1323.7776783704257 393.85416109238747 1326.7776783704257 387.41666109238747L1326.7776783704257 387.41666109238747L1328.7360117037592 389.2083277590541Q1325.5693450370927 396.56249442572084 1321.0693450370927 402.47916109238747Q1316.5693450370927 408.41666109238747 1311.1735117037592 411.85416109238747Q1305.7776783704262 415.31249442572084 1299.9235117037592 415.31249442572084L1299.9235117037592 415.31249442572084Q1294.8193450370927 415.31249442572084 1292.1943450370927 412.60416109238747Q1289.5693450370927 409.91666109238747 1289.5693450370927 405.85416109238747L1289.5693450370927 405.85416109238747Q1289.5693450370927 402.7083277590541 1290.7776783704262 398.81249442572084Q1291.9860117037592 394.91666109238747 1293.1110117037592 390.85416109238747Q1294.2360117037592 386.81249442572084 1294.2360117037592 383.2083277590541L1294.2360117037592 383.2083277590541Q1294.2360117037592 379.31249442572084 1292.5693450370927 377.66666109238747Q1290.9235117037592 375.99999442572084 1288.5276783704262 375.99999442572084L1288.5276783704262 375.99999442572084Q1284.7776783704262 375.99999442572084 1281.7776783704262 378.99999442572084Q1278.7776783704262 381.99999442572084 1276.2985117037592 386.72916109238747Q1273.8193450370927 391.4583277590541 1271.6526783704262 396.7083277590541Q1269.4860117037592 401.9583277590541 1267.5276783704257 406.68749442572084Q1265.5693450370927 411.41666109238747 1263.6318450370927 414.41666109238747Q1261.6735117037592 417.41666109238747 1259.5693450370927 417.41666109238747ZM1270.6735117037592 365.35416109238747L1270.6735117037592 365.35416109238747Q1274.8818450370927 362.06249442572084 1278.8610117037592 356.9583277590541Q1282.8193450370927 351.85416109238747 1286.2776783704257 346.0833277590541Q1289.7360117037592 340.31249442572084 1292.4235117037592 334.74999442572084Q1295.1318450370927 329.2083277590541 1296.6318450370927 324.7083277590541Q1298.1318450370927 320.2083277590541 1298.1318450370927 317.9583277590541L1298.1318450370927 317.9583277590541Q1298.1318450370927 317.2083277590541 1297.9860117037592 316.97916109238747Q1297.8193450370927 316.74999442572084 1297.5276783704262 316.74999442572084L1297.5276783704262 316.74999442572084Q1296.4860117037592 316.74999442572084 1293.2568450370927 320.87499442572084Q1290.0276783704262 324.99999442572084 1285.8193450370927 331.91666109238747Q1281.6318450370927 338.81249442572084 1277.5693450370927 347.49999442572084Q1273.5276783704257 356.2083277590541 1270.6735117037592 365.35416109238747Z " fill="#d83f87" transform="matrix(0.6585205474166412,0,0,0.6585205474166412,0,50.612779593514745)"/></g></svg>