<?xml version="1.0" encoding="iso-8859-1"?>
<!-- Generator: Adobe Illustrator 19.0.0, SVG Export Plug-In . SVG Version: 6.00 Build 0)  -->
<svg xmlns="http://www.w3.org/2000/svg" xmlns:xlink="http://www.w3.org/1999/xlink" version="1.1" id="Capa_1" x="0px" y="0px" viewBox="0 0 512 512" style="enable-background:new 0 0 512 512;" xml:space="preserve" width="512px" height="512px">
<g>
	<g>
		<g>
			<path d="M384,0H128c-23.553,0.028-42.639,19.114-42.667,42.667v324.267c0.015,14.132,11.468,25.585,25.6,25.6h122.95     c-4.123,28.58-7.202,74.325,6.163,113.675c1.174,3.462,4.424,5.791,8.079,5.792h120.321c3.785,0,7.118-2.494,8.188-6.125     l36.937-125.458c3.596-9.392,4.837-19.522,3.613-29.504c-7.1-55.22-49.732-118.645-58.783-131.6V93.867h59.733     c4.713,0,8.533-3.821,8.533-8.533V42.667C426.639,19.114,407.553,0.028,384,0z M238.825,273.067v92.838     c-0.388,1.618-1.153,5.008-2.05,9.563H110.933c-4.71-0.006-8.527-3.823-8.533-8.533V42.667c0.015-14.132,11.468-25.585,25.6-25.6     h222.085c-5.644,7.343-8.719,16.338-8.752,25.6v178.524c-0.019,0.23-0.108,0.442-0.108,0.676V358.4     c0,9.426-7.641,17.067-17.067,17.067s-17.067-7.641-17.067-17.067v-85.333c0-18.851-15.282-34.133-34.133-34.133     S238.825,254.215,238.825,273.067z M400.259,353.083c0.88,7.293-0.063,14.69-2.742,21.529c-0.083,0.217-0.158,0.438-0.225,0.663     l-35.229,119.658H254.387c-16.113-55.583,1.063-125.192,1.246-125.912c0.172-0.683,0.258-1.384,0.259-2.088v-93.867     c0-9.426,7.641-17.067,17.067-17.067s17.067,7.641,17.067,17.067V358.4c0,18.851,15.282,34.133,34.133,34.133     c18.851,0,34.133-15.282,34.133-34.133V250.575C373.671,275.863,395.633,317.133,400.259,353.083z M409.6,76.8h-51.2V42.667     c0-14.138,11.461-25.6,25.6-25.6s25.6,11.462,25.6,25.6V76.8z" fill="#d83f87"/>
			<path d="M136.533,221.867h51.2c4.713,0,8.533-3.821,8.533-8.533c0-4.713-3.82-8.533-8.533-8.533h-51.2     c-4.713,0-8.533,3.821-8.533,8.533C128,218.046,131.821,221.867,136.533,221.867z" fill="#d83f87"/>
			<path d="M315.733,213.333c0-4.713-3.82-8.533-8.533-8.533h-85.333c-4.713,0-8.533,3.821-8.533,8.533     c0,4.713,3.821,8.533,8.533,8.533H307.2C311.913,221.867,315.733,218.046,315.733,213.333z" fill="#d83f87"/>
			<path d="M213.333,238.933h-25.6c-4.713,0-8.533,3.82-8.533,8.533s3.82,8.533,8.533,8.533h25.6c4.713,0,8.533-3.82,8.533-8.533     S218.046,238.933,213.333,238.933z" fill="#d83f87"/>
			<path d="M136.533,256H153.6c4.713,0,8.533-3.82,8.533-8.533s-3.821-8.533-8.533-8.533h-17.067c-4.713,0-8.533,3.82-8.533,8.533     S131.821,256,136.533,256z" fill="#d83f87"/>
			<path d="M136.533,290.133h34.133c4.713,0,8.533-3.82,8.533-8.533s-3.82-8.533-8.533-8.533h-34.133     c-4.713,0-8.533,3.821-8.533,8.533S131.821,290.133,136.533,290.133z" fill="#d83f87"/>
			<path d="M204.8,307.2h-68.267c-4.713,0-8.533,3.82-8.533,8.533s3.82,8.533,8.533,8.533H204.8c4.713,0,8.533-3.82,8.533-8.533     S209.513,307.2,204.8,307.2z" fill="#d83f87"/>
			<path d="M213.333,273.067H204.8c-4.713,0-8.533,3.821-8.533,8.533s3.82,8.533,8.533,8.533h8.533c4.713,0,8.533-3.82,8.533-8.533     S218.046,273.067,213.333,273.067z" fill="#d83f87"/>
			<path d="M217.6,179.2c40.059,0,72.533-32.474,72.533-72.533c0-40.059-32.474-72.533-72.533-72.533     c-40.059,0-72.533,32.474-72.533,72.533C145.111,146.707,177.56,179.155,217.6,179.2z M238.933,157.854     c-13.65,5.706-29.017,5.706-42.667,0v-8.52c0.014-11.776,9.557-21.319,21.333-21.333c11.75,0.077,21.256,9.583,21.333,21.333     V157.854z M204.8,98.133c0-7.069,5.731-12.8,12.8-12.8c7.069,0,12.8,5.731,12.8,12.8c0,7.069-5.731,12.8-12.8,12.8     C210.534,110.926,204.808,105.199,204.8,98.133z M166.076,86.069C174.485,64.988,194.904,51.17,217.6,51.2     c22.695-0.03,43.112,13.786,51.522,34.865c8.411,21.079,3.113,45.155-13.368,60.757c-0.51-9.262-4.426-18.009-10.996-24.559     c-1.564-1.548-3.259-2.957-5.066-4.214c10.853-11.929,10.276-30.32-1.303-41.545c-11.579-11.225-29.979-11.231-41.565-0.013     s-12.174,29.608-1.328,41.544c-9.419,6.684-15.315,17.266-16.043,28.793C162.968,131.228,157.667,107.15,166.076,86.069z" fill="#d83f87"/>
		</g>
	</g>
</g>
<g>
</g>
<g>
</g>
<g>
</g>
<g>
</g>
<g>
</g>
<g>
</g>
<g>
</g>
<g>
</g>
<g>
</g>
<g>
</g>
<g>
</g>
<g>
</g>
<g>
</g>
<g>
</g>
<g>
</g>
</svg>
